<svg id="Layer_1" enable-background="new 0 0 511.983 511.983" height="512" viewBox="0 0 511.983 511.983" width="512" xmlns="http://www.w3.org/2000/svg"><g><g clip-rule="evenodd" fill-rule="evenodd"><path d="m130.496 98.409c11.895-7.73 25.178-14.11 39.495-18.853-5.068-5.129-10.286-9.945-15.635-14.316-3.422-2.796-10.818-8.311-17.481-11.897-2.448 8.213-4.117 18.633-4.738 23.696-.858 7.002-1.387 14.151-1.641 21.37z" fill="#ff7d97"/><path d="m130.496 98.409c.254-7.219.783-14.368 1.641-21.37.621-5.063 2.29-15.484 4.738-23.696 6.663 3.585 14.06 9.101 17.481 11.897 5.349 4.371 10.567 9.188 15.635 14.316 14.311-4.741 29.656-7.847 45.684-9.032-45.824-54.46-80.476-64.906-96.503-59.128-17.416 6.278-32.752 49.986-27.894 124.28 10.077-14.358 23.425-27.003 39.218-37.267z" fill="#fff"/><path d="m341.553 11.396c-16.028-5.778-50.679 4.668-96.503 59.128 16.028 1.186 31.373 4.291 45.683 9.032 5.068-5.129 10.286-9.945 15.635-14.316 3.422-2.796 10.818-8.311 17.482-11.897 2.448 8.213 4.117 18.633 4.738 23.696.859 7.003 1.388 14.152 1.641 21.371 15.794 10.264 29.141 22.91 39.218 37.267 4.858-74.296-10.478-118.003-27.894-124.281z" fill="#fff"/><path d="m323.849 53.342c-6.663 3.585-14.06 9.101-17.482 11.897-5.349 4.371-10.567 9.188-15.635 14.316 14.318 4.743 27.601 11.123 39.496 18.854-.254-7.219-.783-14.368-1.641-21.371-.62-5.063-2.29-15.483-4.738-23.696z" fill="#ff7d97"/><g fill="#fff"><path d="m290.733 79.555c-14.31-4.741-29.655-7.847-45.683-9.032-4.837-.357-9.736-.54-14.687-.54s-9.85.183-14.687.54c-16.028 1.185-31.373 4.291-45.684 9.032-14.318 4.743-27.6 11.123-39.495 18.853-15.793 10.264-29.141 22.91-39.218 37.267-13.311 18.964-20.916 40.914-20.916 64.308 0 27.656 10.629 53.295 28.749 74.368 28.921 33.633 76.924 55.633 131.251 55.633 45.14 0 85.911-15.191 115-39.621v-11.009c-8.626-2.22-15-10.051-15-19.37v-20c0-22 18-40 40-40h20c0-23.394-7.605-45.344-20.916-64.308-10.077-14.357-23.424-27.002-39.218-37.267-11.895-7.731-25.178-14.111-39.496-18.854z"/><path d="m370.362 199.983c-22 0-40 18-40 40v20c0 9.319 6.374 17.15 15 19.37 1.598.411 3.273.63 5 .63 11.046 0 20-8.954 20-20 0 11.046 8.954 20 20 20 11.038 0 19.988-8.942 20-19.978.012 11.036 8.961 19.978 20 19.978 1.727 0 3.402-.219 5-.63 8.626-2.22 15-10.051 15-19.37v-20c0-22-18-40-40-40h-20z"/><path d="m370.362 259.983c0 11.046-8.954 20-20 20-1.727 0-3.402-.219-5-.63v11.009 48.706 77.912c0 24.75 20.25 45 45 45 1.677 0 3.333-.093 4.963-.274 22.438-2.49 40.037-21.652 40.037-44.726v-137.627c-1.598.411-3.274.63-5 .63-11.038 0-19.988-8.942-20-19.978-.012 11.036-8.962 19.978-20 19.978-11.045 0-20-8.954-20-20z"/></g><path d="m345.362 339.068v-48.706c-29.089 24.43-69.86 39.621-115 39.621-54.327 0-102.33-22-131.251-55.633-14.409 14.409-14.898 43.312 2.686 55.855 35.876 25.592 81.361 39.777 128.565 39.777 41.438.001 81.549-10.931 115-30.914z" fill="#ff5a58"/><circle cx="230.362" cy="429.984" fill="#ffc144" r="30"/><path d="m230.362 399.984c16.568 0 30 13.432 30 30s-13.432 30-30 30c-16.569 0-30-13.432-30-30s13.432-30 30-30zm115-60.916c-33.451 19.983-73.562 30.915-115 30.915-47.205 0-92.689-14.185-128.565-39.777-30.732 30.732-61.586 99.985-20.139 171.775h297.408c7.851-13.599 13.104-27.106 16.259-40.275-1.63.181-3.286.274-4.963.274-24.75 0-45-20.25-45-45z" fill="#fff"/></g><g><path d="m410.362 189.983h-10.435c-1.722-20.296-8.659-39.716-20.288-57.201 4.058-70.437-9.521-121.72-34.695-130.794-11.774-4.245-27.67-1.637-44.756 7.341-18.868 9.916-38.874 27.051-59.497 50.917-3.426-.168-6.869-.263-10.328-.263-3.461 0-6.903.095-10.329.263-20.623-23.866-40.629-41.002-59.496-50.917-17.085-8.979-32.979-11.588-44.756-7.341-25.175 9.075-38.754 60.36-34.694 130.799-13.532 20.342-20.725 43.289-20.725 67.196 0 26.805 9.041 52.401 25.924 74.473-5.922 9.191-8.725 20.789-7.606 32.392.879 9.119 4.061 17.257 9.176 23.743-15.815 18.571-27.648 42.835-32.979 68.035-7.777 36.76-1.557 74.134 17.981 108.104.009.016.018.031.027.047.039.067.075.135.114.203.029.05.065.092.095.141.171.285.356.559.554.825.066.088.129.178.197.263.24.3.492.59.765.861.072.071.149.134.223.202.213.2.434.391.664.572.109.085.219.167.331.248.235.169.477.327.727.475.083.049.163.103.247.15.342.191.696.362 1.061.512.052.021.105.037.157.057.314.123.635.229.963.32.101.028.202.053.304.078.287.07.579.126.875.171.109.017.218.037.328.05.354.041.713.066 1.077.07.035 0 .07.007.105.007.01 0 .02-.002.03-.002h297.368c3.572 0 6.874-1.905 8.66-5 6.819-11.809 12.064-24.086 15.641-36.568 24.069-5.86 41.994-27.586 41.994-53.433v-131.032c8.958-5.195 15-14.884 15-25.964v-20c-.004-27.57-22.434-50-50.004-50zm30 50v20c0 5.514-4.486 10-10 10-5.508 0-9.993-4.481-10-9.989-.006-5.519-4.481-9.988-10-9.988s-9.994 4.471-10 9.989c-.006 5.508-4.492 9.988-10 9.988-5.475 0-9.936-4.423-9.999-9.883 0-.039 0-.078 0-.116h-.001c0-.001 0-.001 0-.002 0-5.522-4.478-9.999-10-9.999-5.523 0-10 4.478-10 10 0 5.514-4.485 10-9.999 10-5.515 0-10.001-4.486-10.001-10v-20c0-16.542 13.458-30 30-30h40c16.542 0 30 13.458 30 30zm-102.2-219.181c7.716 2.781 22.41 28.997 22.202 88.888-3.453-3.361-7.11-6.611-10.977-9.731-3.043-2.455-6.181-4.804-9.404-7.047-.315-5.887-.8-11.628-1.47-17.093-.177-1.442-1.822-14.405-5.081-25.335-.859-2.882-2.97-5.224-5.747-6.378-2.774-1.151-5.925-.996-8.574.429-9.136 4.916-18.081 12.15-19.07 12.96-3.963 3.238-7.995 6.835-12.026 10.707-7.425-2.195-15.048-3.961-22.82-5.286 37.731-40.017 63.85-45.4 72.967-42.114zm-19.263 59.586c-3.161-1.591-6.375-3.099-9.647-4.511 1.154-.997 2.302-1.963 3.442-2.894 1.052-.859 2.673-2.122 4.608-3.538.64 3.548 1.102 6.717 1.358 8.81.088.7.16 1.422.239 2.133zm-196.336-59.586c9.115-3.282 35.236 2.1 72.965 42.112-7.774 1.325-15.397 3.089-22.822 5.284-4.029-3.87-8.059-7.465-12.022-10.703-.989-.809-9.931-8.042-19.071-12.96-2.649-1.425-5.797-1.582-8.575-.428-2.777 1.153-4.888 3.496-5.747 6.378-3.258 10.933-4.904 23.893-5.081 25.335-.67 5.465-1.156 11.208-1.471 17.096-3.37 2.346-6.649 4.804-9.822 7.381-3.715 3.018-7.229 6.157-10.558 9.397-.206-59.893 14.488-86.11 22.204-88.892zm28.908 55.074c-3.271 1.412-6.485 2.918-9.645 4.509.08-.709.152-1.43.237-2.129.257-2.094.719-5.263 1.359-8.811 1.936 1.416 3.557 2.679 4.607 3.537 1.14.931 2.288 1.897 3.442 2.894zm78.891 4.107c78.282 0 143.087 48.561 149.481 110h-9.482c-27.57 0-50 22.43-50 50v20c0 10.973 5.926 20.584 14.742 25.815-28.194 22.071-65.199 34.185-104.742 34.185-82.71 0-150-53.832-150-120s67.291-120 150.001-120zm142.808 411.998h-285.605c-33.686-63.597-7.167-121.523 15.768-148.658 4.323 2.812 8.769 5.505 13.321 8.016 1.532.845 3.188 1.246 4.821 1.246 3.524 0 6.942-1.867 8.765-5.172 2.667-4.836.91-10.919-3.926-13.586-6.505-3.589-12.8-7.546-18.71-11.762-6.881-4.909-8.603-12.843-9.017-17.136-.482-5.001.234-10.053 1.932-14.506 3.283 3.185 6.744 6.274 10.4 9.244 31.997 25.998 74.416 40.315 119.443 40.315 38.614 0 75.194-10.483 105-29.819v23.132c-31.232 17.469-67.442 26.688-105 26.688-7.396 0-14.886-.372-22.261-1.105-5.506-.549-10.395 3.466-10.941 8.962-.546 5.495 3.466 10.394 8.962 10.94 4.719.469 9.481.785 14.24.98v11.49c-17.233 4.452-30 20.13-30 38.734 0 22.056 17.944 40 40 40s40-17.944 40-40c0-18.604-12.767-34.283-30-38.734v-11.476c33.578-1.353 65.987-9.504 95-23.876v61.082c0 27.522 20.32 50.384 46.745 54.379-2.385 6.972-5.365 13.867-8.937 20.622zm-142.807-81.997c11.028 0 20 8.972 20 20s-8.972 20-20 20-20-8.972-20-20 8.972-20 20-20zm159.999 41.996c-19.299 0-35-15.701-35-35v-127.422c5.703-.961 10.868-3.53 15-7.233 5.312 4.76 12.324 7.658 20 7.658 7.674 0 14.688-2.9 20-7.661 4.133 3.705 9.298 6.274 15 7.236v127.422c0 19.299-15.701 35-35 35z"/><path d="m280.368 214.983c8.284 0 15-6.716 15-15s-6.716-15-15-15h-.007c-8.284 0-14.996 6.716-14.996 15s6.719 15 15.003 15z"/><path d="m180.364 214.983c8.284 0 15-6.716 15-15s-6.716-15-15-15h-.007c-8.284 0-14.996 6.716-14.996 15s6.719 15 15.003 15z"/><path d="m184.934 254.118c-2.761 4.783-1.122 10.899 3.661 13.66 9.221 5.323 28.265 7.098 41.767-3.487 7.121 5.582 15.782 7.728 23.73 7.728 7.125 0 13.68-1.724 18.038-4.24 4.783-2.761 6.422-8.877 3.66-13.66-2.761-4.782-8.874-6.421-13.66-3.66-2.413 1.391-15.01 4.213-21.768-4.267v-20.604c1.068-.377 2.251-.668 3.591-.873 5.459-.836 9.207-5.939 8.371-11.399-.836-5.459-5.937-9.202-11.399-8.37-3.847.589-7.378 1.649-10.562 3.168-3.184-1.519-6.715-2.578-10.562-3.168-5.459-.834-10.562 2.912-11.399 8.37-.836 5.46 2.911 10.563 8.371 11.399 1.34.205 2.523.496 3.59.873v20.604c-6.759 8.481-19.356 5.658-21.769 4.267-4.782-2.761-10.898-1.125-13.66 3.659z"/><path d="m162.975 350.042h-.008c-5.523 0-9.996 4.478-9.996 10s4.481 10 10.004 10 10-4.478 10-10-4.477-10-10-10z"/></g></g></svg>